<?xml version="1.0" standalone="no"?><!DOCTYPE svg PUBLIC "-//W3C//DTD SVG 1.1//EN" "http://www.w3.org/Graphics/SVG/1.1/DTD/svg11.dtd"><svg t="1555657963076" class="icon" style="" viewBox="0 0 1024 1024" version="1.1" xmlns="http://www.w3.org/2000/svg" p-id="3923" xmlns:xlink="http://www.w3.org/1999/xlink" width="16" height="16"><defs><style type="text/css"></style></defs><path d="M940.8512 200.0896H745.984v-78.0288c0-31.0272-12.288-60.8256-34.304-82.7392C689.7664 17.408 659.968 5.12 628.9408 5.12H395.0592c-64.6144 0-116.9408 52.3264-116.9408 116.9408v78.0288H83.1488c-21.504 0-39.0144 17.408-39.0144 39.0144 0 21.504 17.408 39.0144 39.0144 39.0144h39.0144v584.9088c0 86.1184 69.8368 155.9552 155.9552 155.9552h467.8656c86.1184 0 155.9552-69.8368 155.9552-155.9552V278.016h39.0144c21.504 0 39.0144-17.408 39.0144-39.0144-0.1024-21.504-17.5104-38.912-39.1168-38.912z m-584.8064-78.0288c0-10.3424 4.096-20.2752 11.4688-27.5456 7.2704-7.2704 17.2032-11.3664 27.5456-11.3664h233.984c10.3424 0 20.2752 4.096 27.5456 11.3664 7.2704 7.2704 11.4688 17.2032 11.4688 27.5456v78.0288H356.0448v-78.0288z m467.8656 740.864c0 43.1104-34.9184 78.0288-78.0288 78.0288H278.016c-43.1104 0-78.0288-34.9184-78.0288-78.0288V278.016h623.8208v584.9088z m0 0" p-id="3924" fill="#bfbfbf"></path><path d="M395.0592 356.0448c-10.3424 0-20.2752 4.096-27.5456 11.4688-7.2704 7.2704-11.4688 17.2032-11.4688 27.5456v389.9392c0 21.504 17.408 39.0144 39.0144 39.0144 21.504 0 39.0144-17.408 39.0144-39.0144V395.0592c0-10.3424-4.096-20.2752-11.4688-27.5456-7.2704-7.3728-17.2032-11.4688-27.5456-11.4688z m233.8816 0c-10.3424 0-20.2752 4.096-27.5456 11.4688-7.2704 7.2704-11.4688 17.2032-11.4688 27.5456v389.9392c0 21.504 17.408 39.0144 39.0144 39.0144 21.504 0 39.0144-17.408 39.0144-39.0144V395.0592c0-10.3424-4.096-20.2752-11.4688-27.5456-7.2704-7.3728-17.2032-11.4688-27.5456-11.4688z m0 0" p-id="3925" fill="#bfbfbf"></path></svg>